<svg xmlns="http://www.w3.org/2000/svg" viewBox="0 0 126.31 88.04"><defs><style>.cls-1{font-size:48px;fill:#1d1d1b;font-family:Catamaran-Regular, Catamaran;}.cls-2{fill:#f28a2c;}.cls-3{fill:#fff;stroke:#878787;stroke-miterlimit:10;stroke-width:0.75px;}</style></defs><title>Resurs 2</title><g id="Lager_2" data-name="Lager 2"><g id="Lager_1-2" data-name="Lager 1"><text class="cls-1" transform="translate(0 69.94)">MENY</text><polygon class="cls-2" points="107.12 26.92 104.94 22.49 100.05 21.78 103.58 18.33 102.75 13.46 107.12 15.76 111.5 13.46 110.66 18.33 114.2 21.78 109.31 22.49 107.12 26.92"/><polygon class="cls-2" points="86.64 20.19 84.45 15.76 79.56 15.05 83.1 11.6 82.26 6.73 86.64 9.03 91.01 6.73 90.17 11.6 93.71 15.05 88.82 15.76 86.64 20.19"/><polygon class="cls-2" points="17.64 26.92 19.83 22.49 24.72 21.78 21.18 18.33 22.02 13.46 17.64 15.76 13.27 13.46 14.11 18.33 10.57 21.78 15.46 22.49 17.64 26.92"/><polygon class="cls-2" points="38.13 20.19 40.32 15.76 45.21 15.05 41.67 11.6 42.51 6.73 38.13 9.03 33.76 6.73 34.59 11.6 31.06 15.05 35.95 15.76 38.13 20.19"/><polygon class="cls-2" points="62.73 13.46 60.55 9.03 55.66 8.32 59.2 4.87 58.36 0 62.73 2.3 67.11 0 66.27 4.87 69.81 8.32 64.92 9.03 62.73 13.46"/><line class="cls-3" x1="3.75" y1="74.81" x2="122.19" y2="74.81"/><line class="cls-3" x1="3.75" y1="31.59" x2="122.19" y2="31.59"/></g></g></svg>