<?xml version="1.0" standalone="no"?>
<!DOCTYPE svg PUBLIC "-//W3C//DTD SVG 20010904//EN"
 "http://www.w3.org/TR/2001/REC-SVG-20010904/DTD/svg10.dtd">
<svg version="1.0" xmlns="http://www.w3.org/2000/svg"
 width="1000.000000pt" height="1000.000000pt" viewBox="0 0 1000.000000 1000.000000"
 preserveAspectRatio="xMidYMid meet">
<metadata>
Created by potrace 1.11, written by Peter Selinger 2001-2013
</metadata>
<g transform="translate(0.000000,1000.000000) scale(0.100000,-0.100000)"
fill="#000000" stroke="none">
<path d="M4640 9944 c-703 -62 -1287 -224 -1879 -524 -496 -251 -908 -554
-1308 -963 -732 -750 -1205 -1704 -1357 -2742 -47 -318 -63 -799 -37 -1110 89
-1062 494 -2032 1188 -2841 121 -143 429 -447 568 -563 1228 -1022 2834 -1392
4380 -1011 1291 318 2393 1141 3080 2300 310 523 525 1129 624 1755 71 455 74
1005 5 1475 -116 805 -445 1595 -934 2245 -151 201 -250 315 -435 503 -262
268 -489 456 -790 656 -664 442 -1379 703 -2195 802 -128 16 -788 28 -910 18z
m680 -174 c663 -49 1260 -212 1831 -501 443 -224 819 -493 1178 -844 555 -542
955 -1177 1196 -1900 256 -766 313 -1579 169 -2375 -115 -632 -358 -1233 -719
-1775 -475 -712 -1101 -1262 -1868 -1641 -1126 -556 -2422 -643 -3619 -243
-475 158 -936 400 -1333 697 -356 267 -712 624 -977 977 -871 1164 -1159 2684
-777 4098 214 792 644 1533 1229 2117 749 748 1708 1223 2750 1360 292 38 666
50 940 30z"/>
<path d="M4610 9679 c-1103 -95 -2134 -574 -2915 -1355 -1059 -1059 -1545
-2540 -1319 -4024 146 -962 591 -1854 1274 -2554 703 -720 1586 -1184 2574
-1351 448 -76 945 -84 1401 -24 1247 165 2384 836 3140 1854 792 1065 1090
2411 825 3725 -153 761 -484 1447 -994 2065 -127 154 -437 464 -591 591 -724
598 -1533 944 -2475 1060 -158 19 -751 28 -920 13z m2028 -3309 c44 -27 74
-96 80 -185 8 -133 -39 -358 -183 -874 -94 -335 -136 -503 -169 -661 -56 -274
-71 -524 -38 -630 15 -48 21 -55 46 -58 24 -3 42 10 125 95 102 104 213 259
314 440 32 56 66 108 76 115 16 11 19 34 24 168 9 239 66 522 168 832 66 201
109 282 139 263 20 -12 10 -70 -45 -249 -130 -432 -184 -755 -172 -1021 7
-144 26 -214 68 -249 38 -32 62 -33 125 -1 118 59 183 136 673 790 474 632
582 766 770 958 150 152 221 212 268 223 38 10 72 -4 89 -38 23 -45 14 -212
-21 -388 -94 -476 -198 -917 -279 -1185 -52 -169 -134 -403 -149 -423 -20 -26
0 -19 58 20 135 91 421 271 462 291 43 21 60 19 50 -6 -3 -8 -135 -100 -294
-206 -159 -105 -301 -204 -315 -219 -14 -15 -55 -85 -92 -156 -185 -358 -408
-606 -640 -712 -28 -12 -73 -26 -101 -29 -42 -6 -54 -3 -77 15 -110 86 90 330
578 706 93 71 182 143 200 159 24 23 47 72 102 215 140 371 221 657 381 1347
88 379 106 508 78 546 -11 16 -16 15 -60 -13 -88 -55 -321 -306 -518 -555
-137 -173 -253 -328 -439 -590 -215 -301 -421 -572 -505 -663 -66 -71 -162
-146 -218 -170 -39 -17 -112 -15 -148 3 -60 32 -129 170 -129 261 0 19 -4 34
-10 34 -5 0 -10 -6 -10 -14 0 -43 -278 -463 -373 -563 -130 -137 -216 -139
-268 -5 -20 49 -23 80 -27 231 -2 101 1 215 8 270 23 189 112 560 254 1062 97
343 127 475 133 589 8 154 -18 193 -115 175 -193 -36 -507 -388 -885 -992
-123 -196 -228 -386 -415 -748 -446 -866 -495 -954 -552 -995 -15 -11 -41 -20
-57 -20 -64 0 -86 68 -86 265 1 209 48 470 153 838 92 322 285 869 401 1134
49 111 94 168 123 157 28 -11 19 -42 -90 -331 -140 -372 -337 -969 -390 -1178
-70 -280 -115 -539 -117 -677 -1 -64 2 -120 6 -125 28 -27 146 178 455 782
402 789 624 1155 928 1535 105 132 275 300 352 349 124 79 234 101 300 61z
m-3464 -16 c43 -42 21 -134 -199 -844 -171 -555 -208 -681 -275 -948 -121
-483 -177 -870 -141 -966 8 -18 6 -28 -5 -37 -25 -20 -71 33 -84 97 -22 105
13 401 86 729 109 489 166 685 504 1738 26 81 46 147 44 147 -1 0 -26 -25 -55
-55 -173 -183 -358 -461 -829 -1245 -314 -523 -369 -609 -434 -668 -40 -37
-52 -43 -83 -40 -26 2 -42 11 -57 31 -19 26 -21 41 -20 185 1 115 7 192 23
287 21 118 111 496 160 668 10 38 15 65 10 60 -16 -17 -192 -332 -268 -483
-104 -205 -182 -388 -303 -715 -132 -355 -157 -405 -203 -405 -43 0 -50 23
-49 169 0 101 8 177 28 296 82 473 316 1202 505 1577 53 106 59 113 86 113 52
0 45 -37 -54 -285 -175 -441 -345 -976 -431 -1362 -35 -159 -71 -383 -59 -371
12 12 65 140 115 280 125 352 322 771 522 1113 122 210 157 246 194 200 31
-39 31 -38 -91 -585 -22 -99 -52 -245 -66 -325 -29 -167 -44 -360 -27 -360 12
0 78 76 142 164 46 64 71 104 380 611 423 695 552 889 728 1098 78 91 144 147
173 147 10 0 25 -7 33 -16z m654 -57 c2 -16 -7 -47 -22 -74 -15 -25 -24 -48
-22 -51 3 -2 65 2 138 9 175 18 988 19 1097 1 67 -12 108 -28 97 -39 -2 -2
-232 -5 -512 -6 -415 -2 -540 -6 -679 -21 -121 -13 -176 -23 -189 -35 -11 -9
-47 -74 -81 -146 -121 -252 -232 -555 -304 -825 -38 -141 -93 -411 -86 -418 2
-3 145 14 317 36 660 88 733 94 733 62 0 -11 -26 -17 -110 -27 -92 -10 -566
-79 -869 -126 -79 -12 -80 -12 -89 -47 -5 -19 -7 -127 -5 -240 4 -187 7 -213
32 -295 53 -176 133 -281 255 -338 84 -40 206 -49 297 -22 140 40 217 93 497
343 83 74 133 112 143 108 11 -4 12 -10 5 -25 -18 -32 -312 -311 -391 -370
-165 -123 -344 -168 -505 -126 -88 23 -149 61 -225 141 -75 79 -138 193 -165
299 -23 89 -38 285 -31 418 7 132 13 124 -78 105 -49 -9 -60 -9 -73 5 -27 27
-8 42 78 60 45 9 84 19 86 20 1 2 12 57 23 123 63 369 198 771 395 1175 30 63
55 114 55 115 0 0 -39 -5 -87 -12 -49 -7 -130 -13 -180 -13 -85 -1 -93 1 -93
18 0 22 -2 22 224 52 l168 22 38 61 c55 88 80 117 99 114 9 -2 17 -15 19 -31z"/>
<path d="M8165 3918 c-212 -164 -477 -424 -521 -510 -39 -77 -28 -88 55 -60
183 62 443 332 599 625 23 42 40 77 39 77 -1 0 -78 -59 -172 -132z"/>
</g>
</svg>
